Coordinates
version=1
nRows=11
nColumns=40
inDegrees=yes

Units are S.I. units (second, meters, Newtons, ...)
Angles are in degrees.

endheader
time	pelvis_tilt	pelvis_list	pelvis_rotation	pelvis_tx	pelvis_ty	pelvis_tz	hip_flexion_r	hip_adduction_r	hip_rotation_r	knee_angle_r	knee_angle_r_beta	ankle_angle_r	subtalar_angle_r	mtp_angle_r	hip_flexion_l	hip_adduction_l	hip_rotation_l	knee_angle_l	knee_angle_l_beta	ankle_angle_l	subtalar_angle_l	mtp_angle_l	lumbar_extension	lumbar_bending	lumbar_rotation	arm_flex_r	arm_add_r	arm_rot_r	elbow_flex_r	pro_sup_r	wrist_flex_r	wrist_dev_r	arm_flex_l	arm_add_l	arm_rot_l	elbow_flex_l	pro_sup_l	wrist_flex_l	wrist_dev_l
      0.79000000	      3.27424113	     -1.39668365	      1.07199195	     -0.49117156	      0.88355057	      0.97986107	     22.17326838	     -0.97917786	    -17.47600590	    -17.99919788	     -0.31414527	     -5.44255746	      4.43043066	      0.66752269	    -13.00964854	     -0.05929222	      9.46427562	    -15.81023524	     -0.27594066	     13.68002706	     -7.49727355	     -5.80857110	    -10.48237869	      4.49170956	     -3.25422342	      3.24513115	     -9.35214486	     12.33615475	     12.74316289	     89.95437384	      0.00000000	      0.00000000	     15.86611819	     10.83494231	    -10.72448313	     29.43120602	     89.95437384	      0.00000000	      0.00000000
      0.80000000	      3.19697714	     -1.54058225	      1.23002084	     -0.48296188	      0.88313456	      0.98090024	     21.86793771	     -0.81467450	    -17.59934674	    -18.37936934	     -0.32078051	     -6.38525530	      4.51484617	      0.62899721	    -13.35426432	      0.25478099	      9.20948621	    -16.06337438	     -0.28035877	     13.51987393	     -7.50502141	     -5.83979313	    -10.32074683	      4.66544953	     -3.26632936	      3.12331929	     -9.20176954	     12.41112873	     12.56066987	     89.95437384	      0.00000000	      0.00000000	     15.65676236	     10.58128172	    -10.81921128	     29.47008639	     89.95437384	      0.00000000	      0.00000000
      0.81000000	      3.36052699	     -1.93840404	      1.62631864	     -0.47460396	      0.88342491	      0.98170409	     21.04873812	     -0.46736908	    -18.43008853	    -18.11511293	     -0.31616837	     -7.77957875	      4.97399254	      0.26860801	    -13.85055135	      0.96526891	      9.13153478	    -16.45651058	     -0.28722029	     13.04848468	     -7.70965995	     -6.09879153	    -10.43697465	      5.15874215	     -3.41538865	      2.92456309	     -9.14808909	     12.55384272	     12.67719783	     89.95437384	      0.00000000	      0.00000000	     15.43276224	     10.26979808	    -10.80260556	     29.58708763	     89.95437384	      0.00000000	      0.00000000
      0.82000000	      3.09901009	     -2.13116758	      1.57580528	     -0.46665025	      0.88326131	      0.98305696	     21.03703905	     -0.19553161	    -18.65563436	    -18.28298934	     -0.31909836	     -7.64516612	      4.81167507	      0.16326705	    -13.91083445	      1.26721661	      8.85116141	    -16.82283881	     -0.29361393	     12.72850453	     -7.56252869	     -6.06454988	    -10.15403516	      5.36386243	     -3.18211873	      2.81361193	     -9.04670751	     12.63009909	     12.59999313	     89.95437384	      0.00000000	      0.00000000	     15.20191809	      9.93475517	    -10.81392494	     29.52039569	     89.95437384	      0.00000000	      0.00000000
      0.83000000	      2.92954957	     -2.49487938	      1.65235848	     -0.45850135	      0.88348415	      0.98430200	     20.85776265	      0.19072348	    -19.14876663	    -18.52368400	     -0.32329928	     -7.40732076	      4.38901692	      0.03826573	    -13.99084203	      1.79994802	      8.62519659	    -17.30839122	     -0.30208842	     12.35661724	     -7.32489394	     -6.03205257	     -9.92642538	      5.77883114	     -3.04801255	      2.74636238	     -8.95048409	     12.78837304	     12.42013427	     89.95437384	      0.00000000	      0.00000000	     14.98853499	      9.53169340	    -10.80663913	     29.24594627	     89.95437384	      0.00000000	      0.00000000
      0.84000000	      2.82133553	     -2.96881593	      1.85545330	     -0.45030049	      0.88404879	      0.98540622	     20.54218835	      0.75036712	    -19.36009159	    -18.81866857	     -0.32844773	     -6.99166849	      3.92054064	     -0.14672108	    -13.99522225	      2.50514010	      8.38807771	    -18.02942391	     -0.31467281	     11.82580761	     -6.97942044	     -5.99963662	     -9.76839270	      6.34605990	     -3.06749298	      2.69847301	     -8.89230913	     13.08300699	     12.33879174	     89.95437384	      0.00000000	      0.00000000	     14.76133288	      9.12185432	    -10.70032692	     28.88706335	     89.95437384	      0.00000000	      0.00000000
      0.85000000	      2.54019053	     -2.88670945	      1.81984348	     -0.44218019	      0.88453922	      0.98647321	     20.51069115	      0.79589024	    -19.00841880	    -19.25156400	     -0.33600318	     -6.94131194	      3.78991174	     -0.16410744	    -13.87145172	      2.48006490	      8.11361107	    -18.64067325	     -0.32534112	     11.42096161	     -6.71380479	     -5.87336652	     -9.48133296	      6.26114915	     -2.96441973	      2.47421115	     -8.84555202	     13.06902003	     12.73782004	     89.95437384	      0.00000000	      0.00000000	     14.26100647	      8.88604650	    -10.67846549	     29.03607117	     89.95437384	      0.00000000	      0.00000000
      0.86000000	      2.34199617	     -3.59360181	      1.77281315	     -0.43405173	      0.88548210	      0.98797212	     20.22353798	      1.82009620	    -18.62021828	    -19.33145280	     -0.33739750	     -6.30283357	      3.91917893	     -0.38768338	    -13.69959727	      3.34397240	      7.75487598	    -19.52428807	     -0.34076311	     10.43873535	     -6.13256144	     -5.73093356	     -9.22974499	      7.05918105	     -2.67640604	      2.72135757	     -8.76842450	     13.50995627	     12.06369943	     89.95437384	      0.00000000	      0.00000000	     14.09966279	      8.35204012	    -10.68094900	     28.31386038	     89.95437384	      0.00000000	      0.00000000
      0.87000000	      2.34192179	     -4.37801111	      1.82160610	     -0.42540116	      0.88685150	      0.98954264	     19.29818703	      3.13000305	    -17.86416443	    -18.54687451	     -0.32370403	     -6.14551928	      2.26138648	     -1.05642691	    -13.57543730	      4.55088851	      8.48688218	    -20.71718652	     -0.36158312	      9.36446598	     -6.61255733	     -6.49169744	     -9.15020502	      7.92547297	     -2.61305899	      2.63533570	     -9.05009464	     15.76061978	     12.36880548	     89.95437384	      0.00000000	      0.00000000	     13.59108402	      7.82498361	     -9.82424617	     27.99024905	     89.95437384	      0.00000000	      0.00000000
      0.88000000	      2.08713050	     -4.58526547	      1.75910075	     -0.41703602	      0.88784672	      0.99083070	     19.06926701	      3.49016265	    -17.61424218	    -18.75797216	     -0.32738838	     -5.49769381	      2.13263823	     -1.18207300	    -13.24895102	      4.87693170	      8.37103336	    -21.66409407	     -0.37810977	      8.38283613	     -5.98921368	     -6.32713775	     -8.79928344	      8.16237980	     -2.46562084	      2.68795644	     -8.98542744	     15.90737551	     12.24129179	     89.95437384	      0.00000000	      0.00000000	     13.19086616	      7.50510593	     -9.96053863	     27.51967884	     89.95437384	      0.00000000	      0.00000000
      0.89000000	      1.82250513	     -4.47047200	      1.53623412	     -0.40848372	      0.88880672	      0.99217295	     18.92243266	      3.47152701	    -17.38104738	    -19.15706262	     -0.33435382	     -5.40571336	      2.04772662	     -1.16904555	    -13.08656929	      4.74507147	      8.04062191	    -22.35342819	     -0.39014092	      7.93868951	     -5.72873985	     -6.17703177	     -8.46432023	      8.02784914	     -2.27975237	      2.55110682	     -8.98476930	     15.86117005	     12.67175040	     89.95437384	      0.00000000	      0.00000000	     12.49925457	      7.33576835	     -9.95771107	     27.55922181	     89.95437384	      0.00000000	      0.00000000
